<svg width="138" height="25" viewBox="0 0 138 25" xmlns="http://www.w3.org/2000/svg" xmlns:xlink="http://www.w3.org/1999/xlink"><title>Page 1</title><defs><path id="a" d="M11.487 19.932H.513V.475h10.974v19.457z"/></defs><g fill="none" fill-rule="evenodd"><path d="M31.374 13.92c.33-2.246.304-5.972 0-8.22-.22-1.617-1.41-3.096-3.59-3.096-1.797 0-3.344 1.096-3.592 3.096-.277 2.248-.277 5.974 0 8.22.22 1.59 1.436 3.098 3.59 3.098 1.852 0 3.316-1.123 3.592-3.097m2.624-8.22c.276 2.193.248 6.03 0 8.22-.332 3.016-2.57 5.702-6.215 5.702-3.316 0-5.774-2.165-6.216-5.7-.275-2.22-.275-6.03 0-8.222.36-2.987 2.57-5.7 6.216-5.7 3.315 0 5.772 2.165 6.215 5.7" fill="#FFF"/><g transform="translate(38.598 4.95)"><mask id="b" fill="#fff"><use xlink:href="#a"/></mask><path d="M9.077 5.682c-.11-1.453-1.27-2.74-3.177-2.74-1.906 0-3.067 1.287-3.177 2.74-.082 1.123-.082 2.713 0 3.836.11 1.453 1.27 2.74 3.177 2.74 1.906 0 3.066-1.287 3.177-2.74.082-1.123.082-2.713 0-3.836m2.347 0c.084 1.096.084 2.74 0 3.836-.22 2.88-2.347 5.207-5.248 5.207-1.27 0-2.017-.685-2.568-.685-.415 0-.608.165-.608.685v4.66c0 .3-.25.548-.552.548h-1.38c-.307 0-.555-.247-.555-.55V1.298c0-.3.248-.548.554-.548h.938c.166 0 .277.08.387.19.166.193.415.44.69.44.802 0 1.05-.905 3.094-.905 2.9 0 5.028 2.33 5.248 5.207" fill="#FFF" mask="url(#b)"/></g><path d="M56.958 10.88c0 .163.11.274.277.274h5.746c.166 0 .277-.11.277-.274 0-1.89-1.41-2.987-3.12-2.987-1.908 0-3.18 1.315-3.18 2.987zm.22 2.466c-.165 0-.275.11-.275.274 0 2.494 1.3 3.59 3.205 3.59 1.436 0 2.514-.712 2.845-1.726.11-.357.386-.466.635-.466h1.41c.275 0 .524.164.47.548-.333 2.384-2.487 4.11-5.36 4.11-3.315 0-5.442-2.33-5.663-5.207-.083-1.097-.083-2.74 0-3.837.22-2.877 2.348-5.207 5.663-5.207 3.342 0 5.524 2.055 5.524 5.48V12.8c0 .3-.248.548-.553.548h-7.9zM81.435 18.854c0 .3-.248.548-.552.548h-1.38c-.305 0-.554-.247-.554-.548v-8.22c0-1.755-1.327-2.74-3.04-2.74-1.712 0-3.038 1.013-3.038 2.602v8.358c0 .3-.25.548-.552.548h-1.382c-.303 0-.552-.247-.552-.548V6.248c0-.3.25-.548.552-.548h1.216c.166 0 .276.082.387.192.166.192.415.438.69.438.802 0 1.023-.904 2.957-.904 3.094 0 5.248 1.974 5.248 5.207v8.22zM96.16 11.62c0-.164-.11-.274-.275-.274h-2.513c-.305 0-.553-.247-.553-.548V9.29c0-.3.247-.548.552-.548h4.86c.305 0 .553.247.553.548v4.63c0 3.18-2.57 5.702-6.215 5.702-3.315 0-5.773-2.166-6.215-5.7-.276-2.22-.276-6.03 0-8.222.36-2.987 2.57-5.7 6.215-5.7 3.315 0 6.215 2.138 6.215 5.7v.384c0 .3-.248.548-.552.548h-1.52c-.303 0-.552-.247-.552-.548V5.7c0-1.644-1.407-3.07-3.59-3.096-1.795 0-3.343 1.096-3.59 3.096-.277 2.248-.277 5.974 0 8.22.22 1.59 1.436 3.098 3.59 3.098 1.85 0 3.59-.96 3.59-3.097v-2.3zM106.384 18.854c0 .3-.248.548-.552.548h-1.436c-.304 0-.553-.247-.553-.548V6.248c0-.3.25-.548.553-.548h1.436c.304 0 .552.247.552.548v12.606zm.084-16.497c0 .247-.194.438-.443.438h-1.878c-.25 0-.442-.19-.442-.438V.465c0-.218.193-.438.442-.438h1.878c.25 0 .443.22.443.438v1.892zM120.087 6.11c.11-.3.276-.41.526-.41h1.71c.444 0 .637.357.527.63l-4.862 12.66c-.11.275-.276.412-.526.412h-1.52c-.247 0-.413-.137-.523-.41L110.53 6.33c-.11-.273.082-.63.525-.63h1.71c.25 0 .416.11.526.41l3.206 9.127c.055.192.33.192.386 0l3.205-9.126zM128.874 10.88c0 .163.11.274.276.274h5.747c.165 0 .275-.11.275-.274 0-1.89-1.41-2.987-3.122-2.987-1.905 0-3.176 1.315-3.176 2.987zm.22 2.466c-.165 0-.275.11-.275.274 0 2.494 1.297 3.59 3.203 3.59 1.436 0 2.514-.712 2.845-1.726.11-.357.387-.466.635-.466h1.41c.276 0 .524.164.47.548-.332 2.384-2.486 4.11-5.36 4.11-3.315 0-5.442-2.33-5.663-5.207-.083-1.097-.083-2.74 0-3.837.22-2.877 2.348-5.207 5.663-5.207 3.343 0 5.525 2.055 5.525 5.48V12.8c0 .3-.25.548-.553.548h-7.9zM13.43 17.347c.304 0 .553.246.553.547v1.865c0 .3-.25.546-.552.546H.72c-.304 0-.553-.246-.553-.547v-1.866c0-.3.25-.547.553-.547H13.43zM12.975 2.523c-1.562-1.55-4.096-1.55-5.66 0l-.24.24-.243-.24c-1.562-1.55-4.097-1.55-5.66 0-1.563 1.55-1.563 4.064 0 5.616L6.67 13.59l.033.033c.098.09.227.145.37.145s.272-.055.37-.143l.037-.038 5.495-5.452c1.563-1.55 1.563-4.064 0-5.615" fill="#FFF"/></g></svg>