<?xml version="1.0" encoding="utf-8"?>
<!-- Generator: Adobe Illustrator 21.0.0, SVG Export Plug-In . SVG Version: 6.00 Build 0)  -->
<svg version="1.1" id="Layer_1" xmlns="http://www.w3.org/2000/svg" xmlns:xlink="http://www.w3.org/1999/xlink" x="0px" y="0px"
	 viewBox="0 0 322 51.3" style="enable-background:new 0 0 322 51.3;" height="40px" xml:space="preserve">
<style type="text/css">
	.st0{fill:#F6625E;}
</style>
<g>
	<g>
		<path class="st0" d="M61.2,0c-7.8,0-12.1,6.1-12.8,11.8c-0.6,4.5-0.6,12.4,0,16.9c0.9,7.2,5.9,11.8,12.8,11.8
			c7.9,0,12.2-6.1,12.8-11.8c0.5-4.7,0.5-12.6,0-16.9C73.2,4.6,68.1,0,61.2,0z M54.1,11.9c0.5-3.8,3.3-6.2,7.1-6.2
			c4.6,0,6.7,3.3,7.1,6.2c0.6,4.8,0.6,12.4,0,16.8v0c-0.5,3.8-3.3,6.2-7.1,6.2c-4.3,0-6.7-3.1-7.1-6.2
			C53.6,24.1,53.6,16.4,54.1,11.9z"/>
		<path class="st0" d="M95.8,11.1c-2.6,0-3.8,0.7-4.7,1.3c-0.6,0.3-1,0.6-1.6,0.6c-0.6,0-1.1-0.6-1.3-0.8c-0.2-0.2-0.5-0.4-0.9-0.4
			h-1.9c-0.7,0-1.3,0.6-1.3,1.3V50c0,0.7,0.6,1.3,1.3,1.3h2.8c0.7,0,1.3-0.6,1.3-1.3v-9.5c0-1,0.4-1.2,1.1-1.2
			c0.4,0,0.9,0.2,1.5,0.5c1,0.4,2.1,0.9,3.7,0.9c5.8,0,10.4-4.6,10.8-10.8c0.2-2.2,0.2-5.6,0-7.9C106.1,15.7,101.6,11.1,95.8,11.1z
			 M101.5,29.8c-0.2,2.6-2.2,5.5-6.3,5.5s-6.1-2.8-6.3-5.5c-0.2-2.3-0.2-5.5,0-7.8c0.2-2.6,2.2-5.5,6.3-5.5s6.1,2.8,6.3,5.5
			C101.7,24.3,101.7,27.5,101.5,29.8z"/>
		<path class="st0" d="M127,11.1c-6.4,0-11.2,4.5-11.7,10.8c-0.2,2.2-0.2,5.6,0,7.9c0.5,6.4,5.3,10.8,11.7,10.8
			c5.8,0,10.4-3.5,11.1-8.6c0.1-0.5-0.1-0.8-0.2-1c-0.2-0.2-0.5-0.4-0.9-0.4H134c-0.7,0-1.2,0.4-1.5,1.1c-0.7,2.1-2.9,3.4-5.6,3.4
			c-4.1,0-6.3-2.6-6.3-7.2c0-0.2,0.1-0.4,0.4-0.4h16.1c0.7,0,1.3-0.6,1.3-1.3v-3.9C138.4,15.5,134,11.1,127,11.1z M133.2,22.5
			c0,0.2-0.1,0.4-0.4,0.4h-11.7c-0.2,0-0.4-0.1-0.4-0.4c0-3.4,2.6-5.9,6.3-5.9C130.6,16.5,133.2,19,133.2,22.5z"/>
		<path class="st0" d="M159.6,11.1c-2.4,0-3.6,0.7-4.5,1.2c-0.5,0.3-1,0.6-1.6,0.6c-0.4,0-0.8-0.3-1.3-0.8c-0.2-0.2-0.5-0.4-0.9-0.4
			H149c-0.7,0-1.3,0.6-1.3,1.3v25.8c0,0.7,0.6,1.3,1.3,1.3h2.8c0.7,0,1.3-0.6,1.3-1.3V21.7c0-3,2.5-5.2,6-5.2c3.6,0,6,2.1,6,5.4
			v16.8c0,0.7,0.6,1.3,1.3,1.3h2.8c0.7,0,1.3-0.6,1.3-1.3V22C170.5,15.4,166.2,11.1,159.6,11.1z"/>
		<path class="st0" d="M199.5,34.4h-12.6c-0.2,0-0.4-0.1-0.4-0.4V1.7c0-0.7-0.6-1.3-1.3-1.3h-3.1c-0.7,0-1.3,0.6-1.3,1.3v37.1
			c0,0.7,0.6,1.3,1.3,1.3h17.4c0.7,0,1.3-0.6,1.3-1.3v-3.1C200.8,35,200.2,34.4,199.5,34.4z"/>
		<path class="st0" d="M219.1,11.1c-6.4,0-11.2,4.5-11.7,10.8c-0.2,2.2-0.2,5.6,0,7.9c0.5,6.4,5.3,10.8,11.7,10.8
			c5.8,0,10.4-3.5,11.1-8.6c0.1-0.5-0.1-0.8-0.2-1c-0.2-0.2-0.5-0.4-0.9-0.4h-2.9c-0.7,0-1.2,0.4-1.5,1.1c-0.7,2.1-2.9,3.4-5.6,3.4
			c-4.1,0-6.3-2.6-6.3-7.2c0-0.2,0.1-0.4,0.4-0.4h16.1c0.7,0,1.3-0.6,1.3-1.3v-3.9C230.5,15.5,226.2,11.1,219.1,11.1z M225.3,22.5
			c0,0.2-0.1,0.4-0.4,0.4h-11.7c-0.2,0-0.4-0.1-0.4-0.4c0-3.4,2.6-5.9,6.3-5.9C222.8,16.5,225.3,19,225.3,22.5z"/>
		<path class="st0" d="M250.5,11.1c-5,0-10.3,2.8-10.3,8c0,0.9,0.4,1.3,1.3,1.3h2.5c0.5,0,1.5,0,1.5-1.1c0-2.7,3.3-3.4,5-3.4
			c3.3,0,5,1.5,5,4.3v2.1c0,0.2-0.1,0.4-0.4,0.4h-6.9c-5.6,0-9.4,3.6-9.4,8.7c0,4.2,2.7,9.2,10.4,9.2c2.8,0,4.4-1,5.4-1.6
			c0.5-0.3,0.8-0.5,1.1-0.5c0.3,0,0.5,0.3,0.7,0.7c0.1,0.1,0.2,0.3,0.3,0.4c0.3,0.3,0.5,0.5,0.9,0.5h1.9c0.7,0,1.3-0.6,1.3-1.3V20.3
			C261,14.3,257.3,11.1,250.5,11.1z M248.3,27.8h7.3c0.2,0,0.4,0.1,0.4,0.4v1.8c0,4-2.1,5.7-6.9,5.7c-3.1,0-4.8-1.5-4.8-4.2
			C244.3,29.1,245.7,27.8,248.3,27.8z"/>
		<path class="st0" d="M285.9,11.7h-1.1c-4.1,0-5.9,1.4-7.1,2.4c-0.5,0.4-0.9,0.7-1.2,0.7c-0.5,0-0.6-0.6-0.8-1.3
			c0-0.2-0.1-0.3-0.1-0.5c-0.2-0.9-0.6-1.3-1.3-1.3h-1.9c-0.7,0-1.3,0.6-1.3,1.3v25.8c0,0.7,0.6,1.3,1.3,1.3h2.8
			c0.7,0,1.3-0.6,1.3-1.3V25.3c0-7.5,5.8-8.3,8.2-8.3h1.1c0.7,0,1.3-0.6,1.3-1.3V13C287.2,12.3,286.6,11.7,285.9,11.7z"/>
		<path class="st0" d="M306.4,11.1c-2.4,0-3.6,0.7-4.5,1.2c-0.5,0.3-1,0.6-1.6,0.6c-0.6,0-1.1-0.6-1.3-0.8c-0.2-0.2-0.5-0.4-0.9-0.4
			h-2.5c-0.7,0-1.3,0.6-1.3,1.3v25.8c0,0.7,0.6,1.3,1.3,1.3h2.8c0.7,0,1.3-0.6,1.3-1.3V21.7c0-3,2.5-5.2,6-5.2c3.6,0,6,2.1,6,5.4
			v16.8c0,0.7,0.6,1.3,1.3,1.3h2.8c0.7,0,1.3-0.6,1.3-1.3V22C317.2,15.4,313,11.1,306.4,11.1z"/>
	</g>
	<g>
		<g>
			<path class="st0" d="M32.1,35.7c0.6,0,1.1,0.5,1.1,1.1v3.8c0,0.6-0.5,1.1-1.1,1.1H6.2c-0.6,0-1.1-0.5-1.1-1.1v-3.8
				c0-0.6,0.5-1.1,1.1-1.1H32.1z"/>
		</g>
	</g>
	<g>
		<path class="st0" d="M31.1,5.3c-3.2-3.2-8.3-3.2-11.5,0l-0.5,0.5l-0.5-0.5c-3.2-3.2-8.3-3.2-11.5,0C4,8.5,4,13.7,7.1,16.9L18.3,28
			l0.1,0.1c0.2,0.2,0.5,0.3,0.8,0.3c0.3,0,0.6-0.1,0.8-0.3L20,28l11.2-11.2C34.3,13.7,34.3,8.5,31.1,5.3z"/>
	</g>
</g>
</svg>
