<svg width="138" height="26" viewBox="0 0 138 26" xmlns="http://www.w3.org/2000/svg" xmlns:xlink="http://www.w3.org/1999/xlink"><title>Page 1</title><defs><path id="a" d="M11.487 20.73H.513V.494h10.974V20.73z"/></defs><g fill="none" fill-rule="evenodd"><path d="M31.374 14.478c.33-2.337.304-6.212 0-8.55-.22-1.682-1.41-3.22-3.59-3.22-1.797 0-3.344 1.14-3.592 3.22-.277 2.338-.277 6.213 0 8.55.22 1.654 1.436 3.22 3.59 3.22 1.852 0 3.316-1.168 3.592-3.22m2.624-8.55c.276 2.28.248 6.27 0 8.55-.332 3.135-2.57 5.93-6.215 5.93-3.316 0-5.774-2.253-6.216-5.93-.275-2.308-.275-6.27 0-8.55C21.927 2.822 24.137 0 27.783 0c3.315 0 5.772 2.25 6.215 5.928" fill-opacity=".98" fill="#F6625E"/><g transform="translate(38.598 5.15)"><mask id="b" fill="#fff"><use xlink:href="#a"/></mask><path d="M9.077 5.91c-.11-1.512-1.27-2.85-3.177-2.85-1.906 0-3.067 1.338-3.177 2.85-.082 1.168-.082 2.82 0 3.99.11 1.51 1.27 2.85 3.177 2.85 1.906 0 3.066-1.34 3.177-2.85.082-1.17.082-2.822 0-3.99m2.347 0c.084 1.14.084 2.85 0 3.99-.22 2.992-2.347 5.415-5.248 5.415-1.27 0-2.017-.713-2.568-.713-.415 0-.608.17-.608.713v4.845c0 .313-.25.57-.552.57h-1.38c-.307 0-.555-.257-.555-.57V1.35c0-.314.248-.57.554-.57h.938c.166 0 .277.084.387.198.166.2.415.456.69.456.802 0 1.05-.94 3.094-.94 2.9 0 5.028 2.423 5.248 5.415" fill-opacity=".98" fill="#F6625E" mask="url(#b)"/></g><path d="M56.958 11.315c0 .17.11.285.277.285h5.746c.166 0 .277-.115.277-.285 0-1.967-1.41-3.107-3.12-3.107-1.908 0-3.18 1.368-3.18 3.107zm.22 2.565c-.165 0-.275.114-.275.285 0 2.594 1.3 3.733 3.205 3.733 1.436 0 2.514-.74 2.845-1.795.11-.37.386-.484.635-.484h1.41c.275 0 .524.17.47.57-.333 2.478-2.487 4.274-5.36 4.274-3.315 0-5.442-2.423-5.663-5.416-.083-1.14-.083-2.85 0-3.99.22-2.992 2.348-5.415 5.663-5.415 3.342 0 5.524 2.138 5.524 5.7v1.966c0 .313-.248.57-.553.57h-7.9zM81.435 19.608c0 .314-.248.57-.552.57h-1.38c-.305 0-.554-.256-.554-.57v-8.55c0-1.824-1.327-2.85-3.04-2.85-1.712 0-3.038 1.055-3.038 2.708v8.692c0 .314-.25.57-.552.57h-1.382c-.303 0-.552-.256-.552-.57V6.498c0-.313.25-.57.552-.57h1.216c.166 0 .276.085.387.2.166.2.415.456.69.456.802 0 1.023-.94 2.957-.94 3.094 0 5.248 2.052 5.248 5.414v8.55zM96.16 12.084c0-.17-.11-.284-.275-.284h-2.513c-.305 0-.553-.257-.553-.57V9.662c0-.314.247-.57.552-.57h4.86c.305 0 .553.256.553.57v4.816c0 3.307-2.57 5.93-6.215 5.93-3.315 0-5.773-2.253-6.215-5.93-.276-2.308-.276-6.27 0-8.55C86.715 2.822 88.925 0 92.57 0c3.315 0 6.215 2.223 6.215 5.928v.4c0 .312-.248.57-.552.57h-1.52c-.303 0-.552-.258-.552-.57v-.4c0-1.71-1.407-3.19-3.59-3.22-1.795 0-3.343 1.14-3.59 3.22-.277 2.337-.277 6.213 0 8.55.22 1.654 1.436 3.22 3.59 3.22 1.85 0 3.59-.997 3.59-3.22v-2.394zM106.384 19.608c0 .314-.248.57-.552.57h-1.436c-.304 0-.553-.256-.553-.57V6.498c0-.313.25-.57.553-.57h1.436c.304 0 .552.257.552.57v13.11zm.084-17.157c0 .258-.194.457-.443.457h-1.878c-.25 0-.442-.2-.442-.456V.485c0-.227.193-.455.442-.455h1.878c.25 0 .443.227.443.454V2.45zM120.087 6.356c.11-.314.276-.428.526-.428h1.71c.444 0 .637.37.527.655l-4.862 13.168c-.11.286-.276.428-.526.428h-1.52c-.247 0-.413-.142-.523-.427l-4.89-13.167c-.11-.284.082-.655.525-.655h1.71c.25 0 .416.114.526.428l3.206 9.49c.055.2.33.2.386 0l3.205-9.49zM128.874 11.315c0 .17.11.285.276.285h5.747c.165 0 .275-.115.275-.285 0-1.967-1.41-3.107-3.122-3.107-1.905 0-3.176 1.368-3.176 3.107zm.22 2.565c-.165 0-.275.114-.275.285 0 2.594 1.297 3.733 3.203 3.733 1.436 0 2.514-.74 2.845-1.795.11-.37.387-.484.635-.484h1.41c.276 0 .524.17.47.57-.332 2.478-2.486 4.274-5.36 4.274-3.315 0-5.442-2.423-5.663-5.416-.083-1.14-.083-2.85 0-3.99.22-2.992 2.348-5.415 5.663-5.415 3.343 0 5.525 2.138 5.525 5.7v1.966c0 .313-.25.57-.553.57h-7.9zM13.43 18.04c.304 0 .553.257.553.57v1.94c0 .312-.25.568-.552.568H.72c-.304 0-.553-.256-.553-.57V18.61c0-.313.25-.57.553-.57H13.43zM12.975 2.624c-1.562-1.612-4.096-1.612-5.66 0l-.24.25-.243-.25c-1.562-1.612-4.097-1.612-5.66 0-1.563 1.613-1.563 4.227 0 5.84l5.497 5.67.033.036c.098.092.227.15.37.15s.272-.056.37-.148l.037-.04 5.495-5.668c1.563-1.613 1.563-4.227 0-5.84" fill-opacity=".98" fill="#F6625E"/></g></svg>