<svg width="42" height="56" viewBox="0 0 42 56" xmlns="http://www.w3.org/2000/svg"><title>Group 21</title><g fill="#F5625E" fill-rule="evenodd"><path d="M38.173 3.654c-4.597-4.527-12.052-4.527-16.65 0l-.713.702-.71-.702C15.5-.873 8.044-.873 3.45 3.654c-4.6 4.53-4.6 11.873-.002 16.403l16.172 15.93.1.095c.287.26.668.423 1.09.423.42 0 .798-.16 1.086-.417l.11-.11 16.167-15.924c4.598-4.527 4.598-11.87 0-16.4M39.48 46.925c.892 0 1.625.72 1.625 1.598v5.447c0 .878-.733 1.598-1.624 1.598H2.08c-.894 0-1.628-.72-1.628-1.598v-5.447c0-.88.734-1.598 1.627-1.598h37.4z"/></g></svg>